<?xml version="1.0" standalone="no"?>
<!DOCTYPE svg PUBLIC "-//W3C//DTD SVG 20010904//EN"
 "http://www.w3.org/TR/2001/REC-SVG-20010904/DTD/svg10.dtd">
<svg version="1.0" xmlns="http://www.w3.org/2000/svg"
 width="99.000000pt" height="99.000000pt" viewBox="0 0 99.000000 99.000000"
 preserveAspectRatio="xMidYMid meet">
<metadata>
Created by potrace 1.11, written by Peter Selinger 2001-2013
</metadata>
<g transform="translate(0.000000,99.000000) scale(0.100000,-0.100000)"
fill="#000000" stroke="none">
<path d="M325 973 c-22 -3 -44 -8 -50 -13 -5 -4 -28 -11 -49 -16 -22 -4 -51
-13 -65 -20 -14 -8 -34 -14 -44 -14 -10 0 -16 -4 -13 -9 3 -5 -7 -11 -23 -14
-46 -10 -54 -87 -9 -87 13 0 24 -11 31 -30 6 -16 15 -30 19 -30 4 0 8 -5 8
-11 0 -13 41 -101 51 -109 4 -3 9 -31 12 -62 4 -47 11 -63 35 -88 17 -16 35
-30 40 -30 6 0 13 -13 17 -30 4 -16 10 -30 15 -30 9 0 23 -39 20 -59 -1 -7 3
-10 9 -7 5 3 12 -7 16 -24 4 -16 11 -30 15 -30 5 0 12 -16 16 -35 3 -19 10
-33 14 -30 5 3 11 -8 15 -25 4 -16 10 -30 15 -30 5 0 11 -14 15 -30 4 -17 10
-30 15 -30 5 0 11 -14 15 -30 4 -17 10 -30 13 -31 4 0 15 -2 25 -4 10 -2 17 3
17 11 0 8 9 31 20 51 11 21 20 43 20 50 0 7 4 13 9 13 5 0 12 13 16 30 4 16
11 30 16 30 5 0 9 7 9 15 0 8 8 15 18 15 13 0 14 2 4 9 -11 7 -11 9 2 14 9 4
16 16 16 27 0 13 4 18 11 15 6 -4 9 -1 8 6 -4 21 12 79 21 79 5 0 11 13 15 30
4 16 10 30 15 30 5 0 11 13 15 30 4 16 10 30 15 30 5 0 11 14 15 30 4 16 10
30 15 30 4 0 11 12 15 27 3 15 10 30 13 33 10 7 52 95 52 109 0 6 4 11 9 11 5
0 12 11 15 25 4 15 16 27 31 31 26 7 40 33 31 62 -6 18 -92 62 -122 62 -9 0
-12 5 -8 13 4 6 4 9 0 5 -4 -3 -27 -1 -51 7 -24 7 -46 10 -49 7 -3 -2 -13 1
-22 8 -16 14 -276 22 -369 13z"/>
</g>
</svg>
